<svg xmlns="http://www.w3.org/2000/svg" viewBox="0 0 460 340"
     font-family="Georgia, 'Times New Roman', serif">
  <defs>
    <filter id="paper-texture">
      <feTurbulence type="fractalNoise" baseFrequency="0.04" numOctaves="3" result="noise"/>
      <feColorMatrix type="saturate" values="0" in="noise" result="gray"/>
      <feBlend in="SourceGraphic" in2="gray" mode="multiply"/>
    </filter>
    <filter id="sketch">
      <feTurbulence type="fractalNoise" baseFrequency="0.02" numOctaves="2" result="noise"/>
      <feDisplacementMap in="SourceGraphic" in2="noise" scale="1.5" xChannelSelector="R" yChannelSelector="G"/>
    </filter>
  </defs>
  <rect width="460" height="340" fill="#f4e8c1"/>
  <rect width="460" height="340" fill="url(#paper-texture)" opacity="0.08"/>
  <!-- deckle edge -->
  <rect x="6" y="6" width="448" height="328" fill="none" stroke="#6b5a4a" stroke-width="0.8" opacity="0.4"/>
  <line x1="40" y1="0" x2="40" y2="340" stroke="#d4c8a0" stroke-width="0.3" opacity="0.3"/>
  <line x1="80" y1="0" x2="80" y2="340" stroke="#d4c8a0" stroke-width="0.3" opacity="0.3"/>
  <line x1="120" y1="0" x2="120" y2="340" stroke="#d4c8a0" stroke-width="0.3" opacity="0.3"/>
  <line x1="160" y1="0" x2="160" y2="340" stroke="#d4c8a0" stroke-width="0.3" opacity="0.3"/>
  <line x1="200" y1="0" x2="200" y2="340" stroke="#d4c8a0" stroke-width="0.3" opacity="0.3"/>
  <line x1="240" y1="0" x2="240" y2="340" stroke="#d4c8a0" stroke-width="0.3" opacity="0.3"/>
  <line x1="280" y1="0" x2="280" y2="340" stroke="#d4c8a0" stroke-width="0.3" opacity="0.3"/>
  <line x1="320" y1="0" x2="320" y2="340" stroke="#d4c8a0" stroke-width="0.3" opacity="0.3"/>
  <line x1="360" y1="0" x2="360" y2="340" stroke="#d4c8a0" stroke-width="0.3" opacity="0.3"/>
  <line x1="400" y1="0" x2="400" y2="340" stroke="#d4c8a0" stroke-width="0.3" opacity="0.3"/>
  <line x1="440" y1="0" x2="440" y2="340" stroke="#d4c8a0" stroke-width="0.3" opacity="0.3"/>
  <line x1="0" y1="40" x2="460" y2="40" stroke="#d4c8a0" stroke-width="0.3" opacity="0.3"/>
  <line x1="0" y1="80" x2="460" y2="80" stroke="#d4c8a0" stroke-width="0.3" opacity="0.3"/>
  <line x1="0" y1="120" x2="460" y2="120" stroke="#d4c8a0" stroke-width="0.3" opacity="0.3"/>
  <line x1="0" y1="160" x2="460" y2="160" stroke="#d4c8a0" stroke-width="0.3" opacity="0.3"/>
  <line x1="0" y1="200" x2="460" y2="200" stroke="#d4c8a0" stroke-width="0.3" opacity="0.3"/>
  <line x1="0" y1="240" x2="460" y2="240" stroke="#d4c8a0" stroke-width="0.3" opacity="0.3"/>
  <line x1="0" y1="280" x2="460" y2="280" stroke="#d4c8a0" stroke-width="0.3" opacity="0.3"/>
  <line x1="0" y1="320" x2="460" y2="320" stroke="#d4c8a0" stroke-width="0.3" opacity="0.3"/>
  <path d="M 120.0,230.0 L 124.0,230.0 L 128.0,230.0 L 132.0,229.9 L 136.0,229.8 L 140.0,229.5 L 144.0,228.9 L 148.0,227.9 L 152.0,226.0 L 156.0,222.8 L 160.0,217.6 L 164.0,209.9 L 168.0,198.9 L 172.0,184.4 L 176.0,166.3 L 180.0,145.6 L 184.0,123.8 L 188.0,102.9 L 192.0,85.6 L 196.0,74.0 L 200.0,70.0 L 204.0,74.0 L 208.0,85.6 L 212.0,102.9 L 216.0,123.8 L 220.0,145.6 L 224.0,166.3 L 228.0,184.4 L 232.0,198.9 L 236.0,209.9 L 240.0,217.6 L 244.0,222.8 L 248.0,226.0 L 252.0,227.9 L 256.0,228.9 L 260.0,229.5 L 264.0,229.8 L 268.0,229.9 L 272.0,230.0 L 276.0,230.0 L 280.0,230.0" fill="none" stroke="#3d2b1f" stroke-width="1.5" filter="url(#sketch)"/>
  <line x1="120" y1="230" x2="280" y2="230" stroke="#6b5a4a" stroke-width="0.6"/>
  <rect x="340" y="190" width="16" height="60" fill="none" stroke="#3d2b1f" stroke-width="1.2" filter="url(#sketch)"/>
  <line x1="342" y1="190" x2="354" y2="194" stroke="#3d2b1f" stroke-width="0.5" opacity="0.3"/>
  <rect x="362" y="160" width="16" height="90" fill="none" stroke="#3d2b1f" stroke-width="1.2" filter="url(#sketch)"/>
  <line x1="364" y1="160" x2="376" y2="164" stroke="#3d2b1f" stroke-width="0.5" opacity="0.3"/>
  <rect x="384" y="120" width="16" height="130" fill="none" stroke="#3d2b1f" stroke-width="1.2" filter="url(#sketch)"/>
  <line x1="386" y1="120" x2="398" y2="124" stroke="#3d2b1f" stroke-width="0.5" opacity="0.3"/>
  <rect x="406" y="150" width="16" height="100" fill="none" stroke="#3d2b1f" stroke-width="1.2" filter="url(#sketch)"/>
  <line x1="408" y1="150" x2="420" y2="154" stroke="#3d2b1f" stroke-width="0.5" opacity="0.3"/>
  <rect x="428" y="180" width="16" height="70" fill="none" stroke="#3d2b1f" stroke-width="1.2" filter="url(#sketch)"/>
  <line x1="430" y1="180" x2="442" y2="184" stroke="#3d2b1f" stroke-width="0.5" opacity="0.3"/>
  <circle cx="111" cy="108" r="3" fill="none" stroke="#3d2b1f" stroke-width="1" filter="url(#sketch)"/>
  <circle cx="85" cy="136" r="3" fill="none" stroke="#3d2b1f" stroke-width="1" filter="url(#sketch)"/>
  <circle cx="82" cy="89" r="3" fill="none" stroke="#3d2b1f" stroke-width="1" filter="url(#sketch)"/>
  <circle cx="91" cy="77" r="3" fill="none" stroke="#3d2b1f" stroke-width="1" filter="url(#sketch)"/>
  <circle cx="71" cy="92" r="3" fill="none" stroke="#3d2b1f" stroke-width="1" filter="url(#sketch)"/>
  <circle cx="109" cy="127" r="3" fill="none" stroke="#3d2b1f" stroke-width="1" filter="url(#sketch)"/>
  <circle cx="128" cy="71" r="3" fill="none" stroke="#3d2b1f" stroke-width="1" filter="url(#sketch)"/>
  <circle cx="139" cy="122" r="3" fill="none" stroke="#3d2b1f" stroke-width="1" filter="url(#sketch)"/>
  <circle cx="85" cy="113" r="3" fill="none" stroke="#3d2b1f" stroke-width="1" filter="url(#sketch)"/>
  <circle cx="138" cy="135" r="3" fill="none" stroke="#3d2b1f" stroke-width="1" filter="url(#sketch)"/>
  <circle cx="87" cy="161" r="3" fill="none" stroke="#3d2b1f" stroke-width="1" filter="url(#sketch)"/>
  <circle cx="107" cy="165" r="3" fill="none" stroke="#3d2b1f" stroke-width="1" filter="url(#sketch)"/>
  <text x="60" y="270" font-family="Georgia, serif" font-size="8" fill="#6b5a4a" font-style="italic" opacity="0.85">Distributio et Mensura</text>

  <text x="230" y="322" text-anchor="middle" font-family="Georgia, serif" font-size="10" fill="#6b5a4a" font-style="italic" opacity="0.7">Scatter Diagrams and Correlation</text>

</svg>