<svg xmlns="http://www.w3.org/2000/svg" viewBox="0 0 460 340"
     font-family="Georgia, 'Times New Roman', serif">
  <defs>
    <filter id="paper-texture">
      <feTurbulence type="fractalNoise" baseFrequency="0.04" numOctaves="3" result="noise"/>
      <feColorMatrix type="saturate" values="0" in="noise" result="gray"/>
      <feBlend in="SourceGraphic" in2="gray" mode="multiply"/>
    </filter>
    <filter id="sketch">
      <feTurbulence type="fractalNoise" baseFrequency="0.02" numOctaves="2" result="noise"/>
      <feDisplacementMap in="SourceGraphic" in2="noise" scale="1.5" xChannelSelector="R" yChannelSelector="G"/>
    </filter>
  </defs>
  <rect width="460" height="340" fill="#f4e8c1"/>
  <rect width="460" height="340" fill="url(#paper-texture)" opacity="0.08"/>
  <!-- deckle edge -->
  <rect x="6" y="6" width="448" height="328" fill="none" stroke="#6b5a4a" stroke-width="0.8" opacity="0.4"/>
  <line x1="40" y1="0" x2="40" y2="340" stroke="#d4c8a0" stroke-width="0.3" opacity="0.3"/>
  <line x1="80" y1="0" x2="80" y2="340" stroke="#d4c8a0" stroke-width="0.3" opacity="0.3"/>
  <line x1="120" y1="0" x2="120" y2="340" stroke="#d4c8a0" stroke-width="0.3" opacity="0.3"/>
  <line x1="160" y1="0" x2="160" y2="340" stroke="#d4c8a0" stroke-width="0.3" opacity="0.3"/>
  <line x1="200" y1="0" x2="200" y2="340" stroke="#d4c8a0" stroke-width="0.3" opacity="0.3"/>
  <line x1="240" y1="0" x2="240" y2="340" stroke="#d4c8a0" stroke-width="0.3" opacity="0.3"/>
  <line x1="280" y1="0" x2="280" y2="340" stroke="#d4c8a0" stroke-width="0.3" opacity="0.3"/>
  <line x1="320" y1="0" x2="320" y2="340" stroke="#d4c8a0" stroke-width="0.3" opacity="0.3"/>
  <line x1="360" y1="0" x2="360" y2="340" stroke="#d4c8a0" stroke-width="0.3" opacity="0.3"/>
  <line x1="400" y1="0" x2="400" y2="340" stroke="#d4c8a0" stroke-width="0.3" opacity="0.3"/>
  <line x1="440" y1="0" x2="440" y2="340" stroke="#d4c8a0" stroke-width="0.3" opacity="0.3"/>
  <line x1="0" y1="40" x2="460" y2="40" stroke="#d4c8a0" stroke-width="0.3" opacity="0.3"/>
  <line x1="0" y1="80" x2="460" y2="80" stroke="#d4c8a0" stroke-width="0.3" opacity="0.3"/>
  <line x1="0" y1="120" x2="460" y2="120" stroke="#d4c8a0" stroke-width="0.3" opacity="0.3"/>
  <line x1="0" y1="160" x2="460" y2="160" stroke="#d4c8a0" stroke-width="0.3" opacity="0.3"/>
  <line x1="0" y1="200" x2="460" y2="200" stroke="#d4c8a0" stroke-width="0.3" opacity="0.3"/>
  <line x1="0" y1="240" x2="460" y2="240" stroke="#d4c8a0" stroke-width="0.3" opacity="0.3"/>
  <line x1="0" y1="280" x2="460" y2="280" stroke="#d4c8a0" stroke-width="0.3" opacity="0.3"/>
  <line x1="0" y1="320" x2="460" y2="320" stroke="#d4c8a0" stroke-width="0.3" opacity="0.3"/>
  <path d="M 180 180 Q 150 150 100 140 L 100 260 Q 150 270 180 300 Z" fill="none" stroke="#3d2b1f" stroke-width="1.2" filter="url(#sketch)"/>
  <path d="M 180 180 Q 210 150 260 140 L 260 260 Q 210 270 180 300 Z" fill="none" stroke="#3d2b1f" stroke-width="1.2" filter="url(#sketch)"/>
  <line x1="180" y1="180" x2="180" y2="300" stroke="#3d2b1f" stroke-width="1.5"/>
  <path d="M 320 60 Q 310 100 330 160 Q 340 200 300 280" fill="none" stroke="#3d2b1f" stroke-width="1" filter="url(#sketch)"/>
  <path d="M 320 60 Q 325 80 330 160" fill="none" stroke="#3d2b1f" stroke-width="1.5"/>
  <path d="M 335 280 Q 338 290 335 300 Q 332 290 335 280" fill="#3d2b1f" opacity="0.6"/>
  <path d="M 80.0,80.0 L 80.0,80.0 L 80.1,80.0 L 80.3,80.1 L 80.4,80.2 L 80.5,80.3 L 80.5,80.5 L 80.5,80.7 L 80.4,80.9 L 80.3,81.1 L 80.2,81.3 L 80.0,81.4 L 79.8,81.5 L 79.5,81.6 L 79.2,81.6 L 78.8,81.6 L 78.5,81.5 L 78.2,81.3 L 77.9,81.1 L 77.6,80.8 L 77.3,80.4 L 77.2,80.0 L 77.1,79.5 L 77.0,79.0 L 77.1,78.5 L 77.3,78.0 L 77.5,77.5 L 77.8,77.0 L 78.3,76.6 L 78.8,76.2 L 79.4,76.0 L 80.0,75.8 L 80.7,75.7 L 81.4,75.7 L 82.1,75.8 L 82.8,76.1 L 83.5,76.5 L 84.1,77.0 L 84.7,77.6 L 85.1,78.3 L 85.4,79.1" fill="none" stroke="#6b5a4a" stroke-width="0.5" opacity="0.4"/>
  <text x="100" y="320" font-family="Georgia, serif" font-size="8" fill="#6b5a4a" font-style="italic" opacity="0.85">Studium et Cogitatio</text>

  <text x="230" y="322" text-anchor="middle" font-family="Georgia, serif" font-size="10" fill="#6b5a4a" font-style="italic" opacity="0.7">Definite Integrals</text>

</svg>